nColumns=19
nRows=60
DataType=double
version=3
OpenSimVersion=4.1
endheader
time	ground_force_calcn_r_vx	ground_force_calcn_r_vy	ground_force_calcn_r_vz	ground_force_calcn_r_px	ground_force_calcn_r_py	ground_force_calcn_r_pz	ground_force_calcn_r_mx	ground_force_calcn_r_my	ground_force_calcn_r_mz	ground_force_calcn_l_vx	ground_force_calcn_l_vy	ground_force_calcn_l_vz	ground_force_calcn_l_px	ground_force_calcn_l_py	ground_force_calcn_l_pz	ground_force_calcn_l_mx	ground_force_calcn_l_my	ground_force_calcn_l_mz
0.233333	-15.7184	45.4901	-0.770624	0.584784	0	-0.248642	0.17909	-0.518299	0.00878024	0	0	0	0	0	0	0	0	0
0.241667	-30.2858	118.142	-1.71595	0.589787	0	-0.27282	0.153715	-0.599625	0.00870925	0	0	0	0	0	0	0	0	0
0.25	-43.9991	259.604	-1.432	0.588106	0	-0.285589	0.18225	-1.07531	0.00593153	0	0	0	0	0	0	0	0	0
0.258333	-47.3845	461.449	1.67386	0.58053	0	-0.291981	0.191251	-1.86248	-0.00675599	0	0	0	0	0	0	0	0	0
0.266667	-36.5709	667.858	7.18323	0.569032	0	-0.295123	0.151323	-2.76347	-0.0297228	0	0	0	0	0	0	0	0	0
0.275	-24.3878	824.695	11.5017	0.55662	0	-0.296545	0.104378	-3.52964	-0.0492265	0	0	0	0	0	0	0	0	0
0.283333	-34.0203	923.327	10.6869	0.546743	0	-0.297112	0.145412	-3.94654	-0.0456788	0	0	0	0	0	0	0	0	0
0.291667	-68.8878	992.761	4.62762	0.541236	0	-0.297145	0.270331	-3.89581	-0.0181598	0	0	0	0	0	0	0	0	0
0.3	-106.426	1064.98	-3.0125	0.536458	0	-0.296735	0.339397	-3.39627	0.009607	0	0	0	0	0	0	0	0	0
0.308333	-125.728	1151.24	-8.80344	0.527405	0	-0.29633	0.281154	-2.5744	0.0196863	0	0	0	0	0	0	0	0	0
0.316667	-121.621	1246.94	-12.1103	0.513859	0	-0.296199	0.153167	-1.57037	0.0152514	0	0	0	0	0	0	0	0	0
0.325	-102.177	1339.86	-14.1496	0.499068	0	-0.296222	0.0383367	-0.502714	0.00530892	0	0	0	0	0	0	0	0	0
0.333333	-79.4655	1413.77	-16.132	0.485237	0	-0.296103	-0.0300257	0.534186	-0.00609539	0	0	0	0	0	0	0	0	0
0.341667	-60.1289	1457.52	-18.6414	0.472672	0	-0.295618	-0.060958	1.47762	-0.0188984	0	0	0	0	0	0	0	0	0
0.35	-45.1018	1470.9	-21.7256	0.46107	0	-0.29488	-0.0703023	2.29276	-0.0338647	0	0	0	0	0	0	0	0	0
0.358333	-31.2476	1459.91	-24.8603	0.449963	0	-0.294063	-0.0633197	2.95835	-0.0503767	0	0	0	0	0	0	0	0	0
0.366667	-16.9384	1428.87	-27.2992	0.439061	0	-0.29315	-0.0409594	3.45521	-0.0660133	0	0	0	0	0	0	0	0	0
0.375	-2.92263	1379.98	-28.7566	0.428446	0	-0.292039	-0.00796922	3.76284	-0.0784115	0	0	0	0	0	0	0	0	0
0.383333	9.99983	1315.59	-29.4306	0.418377	0	-0.290681	0.029348	3.86105	-0.0863744	0	0	0	0	0	0	0	0	0
0.391667	21.5727	1238.06	-29.3801	0.408971	0	-0.289163	0.0650475	3.73308	-0.0885891	0	0	0	0	0	0	0	0	0
0.4	32.1367	1150.56	-28.1061	0.399932	0	-0.287728	0.0941472	3.37066	-0.0823392	0	0	0	0	0	0	0	0	0
0.408333	41.7409	1057.86	-24.7918	0.390735	0	-0.286588	0.109765	2.78183	-0.0651942	0	0	0	0	0	0	0	0	0
0.416667	51.8932	964.714	-19.0217	0.381037	0	-0.285782	0.107508	1.99862	-0.0394077	0	0	0	0	0	0	0	0	0
0.425	62.7117	873.058	-11.3463	0.370616	0	-0.285362	0.0776381	1.08086	-0.0140469	0	0	0	0	0	0	0	0	0
0.433333	71.7615	782.706	-3.09271	0.359559	0	-0.285361	0.0101133	0.110306	-0.000435854	0	0	0	0	0	0	0	0	0
0.441667	77.2185	692.882	4.46297	0.348271	0	-0.285672	-0.0920548	-0.826009	-0.00532046	0	0	0	0	0	0	0	0	0
0.45	79.388	603.476	10.6796	0.336786	0	-0.285967	-0.217467	-1.6531	-0.0292546	0	0	0	0	0	0	0	0	0
0.458333	79.6693	515.658	15.3403	0.324967	0	-0.285825	-0.358032	-2.31736	-0.0689391	0	0	0	0	0	0	0	0	0
0.466667	78.0535	430.079	18.2561	0.312971	0	-0.285166	-0.506471	-2.79068	-0.11846	0	0	0	0	0	0	0	0	0
0.475	74.5382	347.86	19.324	0.300659	0	-0.284085	-0.657366	-3.06785	-0.170422	0	0	0	0	0	0	0	0	0
0.483333	69.8448	272.395	18.7145	0.288644	0	-0.282274	-0.809819	-3.1583	-0.216987	0	0	0	0	0	0	0	0	0
0.491667	63.8854	207.206	16.7823	0.279001	0	-0.279079	-0.951402	-3.08578	-0.249927	0	0	0	0	0	0	0	0	0
0.5	55.9452	153.727	13.9124	0.273371	0	-0.273999	-1.05252	-2.89214	-0.26174	0	0	0	0	0	0	0	0	0
0.508333	46.0729	111.64	10.581	0.274013	0	-0.267033	-1.08516	-2.62947	-0.249215	0	0	0	0	0	0	0	0	0
0.516667	36.1808	79.8488	7.41002	0.284014	0	-0.257913	-1.05321	-2.32436	-0.215702	0	0	0	0	0	0	0	0	0
0.525	28.1009	56.7471	4.90312	0.303446	0	-0.244985	-0.9777	-1.97437	-0.170591	0	0	0	0	0	0	0	0	0
0.533333	21.8799	40.2815	3.14737	0.332253	0	-0.226365	-0.863952	-1.59056	-0.124277	0	0	0	0	0	0	0	0	0
0.541667	15.9985	28.5809	1.93422	0.376162	0	-0.203127	-0.693388	-1.23872	-0.0838311	0	0	0	0	0	0	0	0	0
0.55	0	0	0	0	0	0	0	0	0	0	0	0	0	0	0	0	0	0
0.558333	0	0	0	0	0	0	0	0	0	0	0	0	0	0	0	0	0	0
0.566667	0	0	0	0	0	0	0	0	0	-7.19578	31.364	1.22175	0.560553	0	-0.279544	0.113227	-0.493522	-0.0192245
0.575	0	0	0	0	0	0	0	0	0	-17.9176	67.1465	2.4033	0.57662	0	-0.349853	0.0882967	-0.330894	-0.0118433
0.583333	0	0	0	0	0	0	0	0	0	-27.7193	151.015	4.60303	0.575847	0	-0.377791	0.0568515	-0.309727	-0.0094407
0.591667	0	0	0	0	0	0	0	0	0	-33.2596	299.275	7.70609	0.569904	0	-0.383509	0.0436803	-0.393041	-0.0101205
0.6	0	0	0	0	0	0	0	0	0	-34.5458	489.085	10.8149	0.56329	0	-0.382298	0.0394551	-0.55859	-0.0123518
0.608333	0	0	0	0	0	0	0	0	0	-33.2633	665.093	12.8514	0.556708	0	-0.380806	0.0399357	-0.798507	-0.0154293
0.616667	0	0	0	0	0	0	0	0	0	-35.2339	793.909	14.2821	0.548463	0	-0.38179	0.0503191	-1.13382	-0.0203969
0.625	0	0	0	0	0	0	0	0	0	-50.3504	885.897	17.704	0.538711	0	-0.384976	0.0911355	-1.6035	-0.0320448
0.633333	0	0	0	0	0	0	0	0	0	-74.0498	970.329	25.4099	0.529795	0	-0.387758	0.170207	-2.23034	-0.0584056
0.641667	0	0	0	0	0	0	0	0	0	-93.0199	1064.73	36.3397	0.521494	0	-0.38879	0.261428	-2.99238	-0.102131
0.65	0	0	0	0	0	0	0	0	0	-100.879	1164.56	46.6927	0.511594	0	-0.389094	0.330838	-3.81923	-0.153131
0.658333	0	0	0	0	0	0	0	0	0	-96.1215	1258.01	53.7128	0.499588	0	-0.389641	0.352907	-4.61874	-0.197205
0.666667	0	0	0	0	0	0	0	0	0	-83.2495	1335.82	57.9679	0.486892	0	-0.390502	0.331126	-5.31322	-0.230568
0.675	0	0	0	0	0	0	0	0	0	-66.8368	1391.22	61.7034	0.474176	0	-0.391366	0.281814	-5.86603	-0.260169
0.683333	0	0	0	0	0	0	0	0	0	-49.5699	1419.41	65.9376	0.461694	0	-0.392205	0.219331	-6.28044	-0.291753
0.691667	0	0	0	0	0	0	0	0	0	-33.4636	1418.81	70.028	0.449776	0	-0.393163	0.155227	-6.58141	-0.324838
0.7	0	0	0	0	0	0	0	0	0	-18.8918	1391.72	73.101	0.438495	0	-0.394185	0.0922656	-6.79701	-0.357017
0.708333	0	0	0	0	0	0	0	0	0	-5.24866	1341.94	74.7882	0.427939	0	-0.395181	0.0271625	-6.9447	-0.387039
0.716667	0	0	0	0	0	0	0	0	0	8.48631	1273.11	75.0969	0.418088	0	-0.396102	-0.0468181	-7.02363	-0.414301
0.725	0	0	0	0	0	0	0	0	0	21.6735	1188.22	74.0405	0.408611	0	-0.39698	-0.127923	-7.01319	-0.437006
